# xmcd
#
# Track frame offsets: 
#        150
#        21730
#        46550
#        67992
#        89170
#        109257
#        128822
#        152310
#        170295
#        193437
#        208917
#        237115
#
# Disc length: 3444 seconds
#
# Revision: 0
# Processed by: cddbd v1.5.2PL0 Copyright (c) Steve Scherf et al.
# Submitted via: ExactAudioCopyFreeDBPlugin 1.0
#
DISCID=a60d720c
DTITLE=คาราบาว - ซานตาน่า
DYEAR=1900
DGENRE=
TTITLE0=ลุงขี้เมา
TTITLE1=นีออน
TTITLE2=ซาอุดร
TTITLE3=รักคุณเท่าฟ้า
TTITLE4=สัญญาหน้าฝน
TTITLE5=แม่สาย
TTITLE6=เฒ่าทะเล
TTITLE7=ท.ทหารอดทน
TTITLE8=ประชาธิปไตย
TTITLE9=แป๊ะขายขวด
TTITLE10=เวลคัมทูไทยแลนด์
TTITLE11=คนหลังเขา
EXTD=
EXTT0=
EXTT1=
EXTT2=
EXTT3=
EXTT4=
EXTT5=
EXTT6=
EXTT7=
EXTT8=
EXTT9=
EXTT10=
EXTT11=
PLAYORDER=
